#!OML:ASF H:\Dans Jumps\Project 1\Capture day 1\Session 1\subject.ASF
:FULLY-SPECIFIED
:DEGREES
89
root 0.771862 17.5423 -13.8113 7.34796 -0.832205 -1.63631
lowerback -2.94511 -0.764255 0.730464
upperback 3.40783 -1.15058 1.89732
thorax 5.20196 -0.583021 1.47019
lowerneck -13.8718 0.81681 -1.8469
upperneck 30.5127 1.79698 -0.376905
head 12.3686 0.530128 0.436518
rclavicle 3.08116e-015 -8.74653e-015
rhumerus -23.5611 -20.3464 -78.2778
rradius 25.4445
rwrist 33.1485
rhand -17.94 -26.0225
rfingers 7.12502
rthumb 8.32822 -55.8384
lclavicle 3.08116e-015 -8.74653e-015
lhumerus -19.851 5.22506 85.6991
lradius 17.8867
lwrist -1.5847
lhand -24.2876 -3.3251
lfingers 7.12502
lthumb 2.19962 26.6433
rfemur -13.1745 -2.38643 19.384
rtibia 20.2481
rfoot -13.7097 -3.80825
rtoes 11.1068
lfemur -12.7976 8.38042 -17.9536
ltibia 18.9969
lfoot -10.5523 6.21397
ltoes -11.4253
90
root 0.771133 17.5427 -13.814 7.35537 -0.800488 -1.63119
lowerback -2.92018 -0.767602 0.723541
upperback 3.40902 -1.15408 1.8949
thorax 5.18911 -0.584978 1.4716
lowerneck -13.8734 0.814659 -1.84299
upperneck 30.4798 1.79414 -0.382286
head 12.3557 0.529117 0.433254
rclavicle 1.88845e-015 4.37326e-015
rhumerus -23.5338 -20.316 -78.2918
rradius 25.4605
rwrist 33.1337
rhand -17.9588 -26.0054
rfingers 7.12502
rthumb 8.31007 -55.822
lclavicle 1.88845e-015 4.37326e-015
lhumerus -19.8488 5.2566 85.6858
lradius 17.861
lwrist -1.62602
lhand -24.2962 -3.35637
lfingers 7.12502
lthumb 2.19134 26.6121
rfemur -13.1806 -2.35963 19.3815
rtibia 20.239
rfoot -13.705 -3.86933
rtoes 11.0945
lfemur -12.8894 8.48699 -17.9825
ltibia 19.1057
lfoot -10.5376 6.17002
ltoes -11.3925
91
root 0.77058 17.543 -13.8169 7.36258 -0.769677 -1.62483
lowerback -2.8925 -0.770925 0.716458
upperback 3.40907 -1.15744 1.89193
thorax 5.17349 -0.586857 1.47256
lowerneck -13.8769 0.811086 -1.84957
upperneck 30.4491 1.78914 -0.377879
head 12.3439 0.527167 0.435232
rclavicle -1.75924e-014 1.31198e-014
rhumerus -23.5148 -20.2683 -78.3094
rradius 25.4929
rwrist 33.102
rhand -17.9722 -26.0032
rfingers 7.12502
rthumb 8.29716 -55.8203
lclavicle -1.75924e-014 1.31198e-014
lhumerus -19.8461 5.28686 85.6724
lradius 17.834
lwrist -1.66304
lhand -24.3016 -3.40856
lfingers 7.12502
lthumb 2.18604 26.56
rfemur -13.1889 -2.33666 19.3775
rtibia 20.2319
rfoot -13.6993 -3.92746
rtoes 11.0734
lfemur -12.9814 8.58884 -18.013
ltibia 19.2124
lfoot -10.5224 6.12499
ltoes -11.3604
92
root 0.770215 17.5434 -13.82 7.37147 -0.738892 -1.62027
lowerback -2.86406 -0.774228 0.712358
upperback 3.409 -1.16095 1.88954
thorax 5.15726 -0.588706 1.47246
lowerneck -13.8875 0.805886 -1.86117
upperneck 30.4205 1.78236 -0.370097
head 12.3344 0.52422 0.43916
rclavicle 1.19271e-015 1.70955e-014
rhumerus -23.4994 -20.2109 -78.3299
rradius 25.5367
rwrist 33.0586
rhand -17.9843 -26.0062
rfingers 7.12502
rthumb 8.28545 -55.8237
lclavicle 1.19271e-015 1.70955e-014
lhumerus -19.8407 5.31561 85.6598
lradius 17.8079
lwrist -1.69545
lhand -24.3129 -3.4907
lfingers 7.12502
lthumb 2.17514 26.478
rfemur -13.2006 -2.32207 19.3757
rtibia 20.2247
rfoot -13.6913 -3.978
rtoes 11.0482
lfemur -13.0762 8.68558 -18.0423
ltibia 19.3163
lfoot -10.5055 6.08046
ltoes -11.3507
93
root 0.770069 17.5438 -13.8232 7.38127 -0.708322 -1.61859
lowerback -2.8355 -0.777063 0.713186
upperback 3.40947 -1.16412 1.88741
thorax 5.14144 -0.590204 1.46989
lowerneck -13.8982 0.799287 -1.87556
upperneck 30.3875 1.77327 -0.359246
head 12.3231 0.520393 0.44438
rclavicle 1.65985e-014 -1.59028e-014
rhumerus -23.489 -20.138 -78.3544
rradius 25.5955
rwrist 32.9953
rhand -17.9852 -26.0175
rfingers 7.12502
rthumb 8.28463 -55.835
lclavicle 1.65985e-014 -1.59028e-014
lhumerus -19.8315 5.34252 85.6478
lradius 17.7831
lwrist -1.72645
lhand -24.3155 -3.5747
lfingers 7.12502
lthumb 2.17264 26.394
rfemur -13.2132 -2.31439 19.3768
rtibia 20.2149
rfoot -13.6803 -4.02299
rtoes 11.0147
lfemur -13.1707 8.77358 -18.0681
ltibia 19.4165
lfoot -10.4883 6.03917
ltoes -11.346
94
root 0.770071 17.5442 -13.8267 7.39414 -0.67781 -1.62127
lowerback -2.80727 -0.779045 0.719244
upperback 3.40886 -1.16646 1.88663
thorax 5.12459 -0.591124 1.46585
lowerneck -13.9089 0.790806 -1.89085
upperneck 30.3516 1.76156 -0.348025
head 12.3106 0.515386 0.449501
rclavicle -8.94531e-016 2.38542e-015
rhumerus -23.4805 -20.0635 -78.3785
rradius 25.6586
rwrist 32.928
rhand -17.975 -26.0342
rfingers 7.12502
rthumb 8.29441 -55.8513
lclavicle -8.94531e-016 2.38542e-015
lhumerus -19.8205 5.36429 85.6388
lradius 17.7613
lwrist -1.75273
lhand -24.3227 -3.66597
lfingers 7.12502
lthumb 2.16574 26.3028
rfemur -13.2281 -2.31107 19.3823
rtibia 20.2004
rfoot -13.666 -4.06228
rtoes 10.9908
lfemur -13.2652 8.85079 -18.0883
ltibia 19.5112
lfoot -10.4703 6.00119
ltoes -11.3374
95
root 0.770192 17.5447 -13.8304 7.40746 -0.648975 -1.62879
lowerback -2.77844 -0.779926 0.729416
upperback 3.40743 -1.16762 1.88829
thorax 5.10648 -0.591353 1.46213
lowerneck -13.9068 0.784273 -1.89574
upperneck 30.3042 1.75245 -0.347005
head 12.291 0.511621 0.449186
rclavicle -1.68967e-015 -1.59028e-014
rhumerus -23.4718 -19.9854 -78.4007
rradius 25.7198
rwrist 32.8589
rhand -17.9599 -26.0572
rfingers 7.12502
rthumb 8.30907 -55.8737
lclavicle -1.68967e-015 -1.59028e-014
lhumerus -19.8111 5.37769 85.6347
lradius 17.7463
lwrist -1.77027
lhand -24.3236 -3.7349
lfingers 7.12502
lthumb 2.16479 26.2339
rfemur -13.2413 -2.30728 19.3925
rtibia 20.1809
rfoot -13.6505 -4.09748
rtoes 10.9916
lfemur -13.3542 8.91963 -18.1016
ltibia 19.5969
lfoot -10.4535 5.96473
ltoes -11.3168
